<svg width="256" height="64" viewBox="0 0 256 64" xmlns="http://www.w3.org/2000/svg"><title>Artboard</title><g fill="#000" fill-rule="evenodd"><path d="M223.944.492c8.812 0 16.276 3.058 22.392 9.172 6.112 6.077 9.172 13.522 9.172 22.336 0 8.816-3.003 16.204-9.005 22.168-6.338 6.226-13.858 9.34-22.56 9.34-8.516 0-15.904-3.095-22.167-9.285-6.19-6.187-9.284-13.593-9.284-22.223 0-8.588 3.096-16.033 9.285-22.335 6.112-6.114 13.5-9.173 22.166-9.173zm.112 5.684c-7.164 0-13.22 2.532-18.173 7.596-5.14 5.214-7.71 11.29-7.71 18.228 0 7.015 2.55 13.053 7.65 18.117 5.103 5.102 11.18 7.65 18.23 7.65 7.015 0 13.13-2.567 18.345-7.706 4.95-4.8 7.426-10.82 7.426-18.06 0-7.2-2.514-13.278-7.54-18.228-4.987-5.066-11.064-7.596-18.227-7.596zM209.99 27.554c.6-3.863 2.155-6.854 4.67-8.973 2.512-2.116 5.568-3.177 9.17-3.177 4.95 0 8.89 1.595 11.815 4.782 2.924 3.187 4.388 7.276 4.388 12.264 0 4.838-1.52 8.86-4.555 12.066-3.04 3.206-6.977 4.81-11.818 4.81-3.564 0-6.64-1.067-9.226-3.206-2.59-2.136-4.145-5.175-4.67-9.113h7.935c.187 3.826 2.493 5.74 6.92 5.74 2.212 0 3.995-.958 5.345-2.87 1.352-1.913 2.028-4.465 2.028-7.653 0-3.337-.62-5.878-1.857-7.623-1.238-1.742-3.018-2.616-5.346-2.616-4.202 0-6.564 1.856-7.09 5.57h2.308l-6.244 6.245-6.245-6.247h2.47zM128.443.5c8.988 0 16.57 3.085 22.742 9.257 6.208 6.21 9.315 13.79 9.315 22.743 0 8.99-3.05 16.476-9.145 22.456-6.475 6.364-14.113 9.544-22.912 9.544-8.65 0-16.153-3.144-22.514-9.43-6.287-6.286-9.43-13.808-9.43-22.57 0-8.76 3.144-16.342 9.43-22.742C112.1 3.585 119.603.5 128.442.5zm.114 5.772c-7.277 0-13.427 2.553-18.457 7.658-5.22 5.333-7.83 11.524-7.83 18.57 0 7.087 2.59 13.22 7.77 18.4 5.182 5.18 11.353 7.77 18.515 7.77 7.123 0 13.334-2.607 18.63-7.828 5.028-4.838 7.542-10.952 7.542-18.343 0-7.278-2.553-13.467-7.656-18.573-5.102-5.104-11.274-7.656-18.512-7.656v.002zm8.572 18.285v13.085h-3.658v15.542h-9.942v-15.54h-3.657V24.556c0-.572.2-1.057.6-1.457.4-.4.886-.6 1.456-.6h13.142c.533 0 1.01.2 1.428.6.418.4.63.885.63 1.456zm-13.09-8.227c0-3.01 1.485-4.515 4.458-4.515s4.457 1.504 4.457 4.514c0 2.97-1.486 4.455-4.457 4.455-2.97 0-4.458-1.486-4.458-4.457v.002zM31.94.492c8.815 0 16.32 3.077 22.507 9.228 2.962 2.964 5.214 6.35 6.752 10.155 1.535 3.808 2.307 7.848 2.307 12.125 0 4.313-.762 8.355-2.28 12.124-1.52 3.77-3.76 7.1-6.723 9.987-3.075 3.038-6.563 5.365-10.466 6.978-3.9 1.612-7.932 2.42-12.095 2.42s-8.15-.8-11.956-2.394c-3.807-1.593-7.22-3.9-10.24-6.92-3.02-3.018-5.317-6.422-6.893-10.21C1.28 40.193.492 36.2.492 32c0-4.165.798-8.167 2.39-12.012 1.596-3.845 3.912-7.286 6.95-10.325 6-6.112 13.37-9.17 22.11-9.17zm.116 5.684c-7.2 0-13.26 2.513-18.174 7.54-2.477 2.51-4.38 5.333-5.71 8.466-1.335 3.13-2 6.404-2 9.817 0 3.376.665 6.63 2 9.76 1.33 3.135 3.233 5.928 5.71 8.385 2.474 2.458 5.268 4.333 8.383 5.628 3.11 1.293 6.376 1.94 9.79 1.94 3.375 0 6.646-.655 9.82-1.968 3.17-1.314 6.026-3.207 8.58-5.68C55.366 45.26 57.822 39.242 57.822 32c0-3.488-.64-6.788-1.914-9.9-1.274-3.115-3.132-5.89-5.568-8.33-5.066-5.063-11.16-7.595-18.287-7.595zm-.394 20.593l-4.222 2.194c-.453-.937-1.004-1.595-1.66-1.97-.657-.373-1.266-.562-1.83-.562-2.81 0-4.22 1.856-4.22 5.57 0 1.688.357 3.037 1.07 4.05.712 1.014 1.76 1.52 3.15 1.52 1.84 0 3.133-.902 3.884-2.702l3.88 1.97c-.824 1.538-1.968 2.746-3.43 3.63-1.462.88-3.076 1.32-4.84 1.32-2.812 0-5.083-.86-6.808-2.59-1.725-1.722-2.588-4.124-2.588-7.198 0-3 .872-5.382 2.616-7.145 1.742-1.763 3.948-2.645 6.61-2.645 3.904-.002 6.697 1.516 8.386 4.556h.002zm18.172 0l-4.165 2.194c-.45-.937-1.005-1.595-1.66-1.97-.657-.373-1.287-.562-1.884-.562-2.813 0-4.22 1.856-4.22 5.57 0 1.688.356 3.037 1.068 4.05.712 1.014 1.762 1.52 3.15 1.52 1.838 0 3.132-.902 3.882-2.702l3.94 1.97c-.863 1.538-2.027 2.746-3.487 3.63-1.465.88-3.06 1.32-4.784 1.32-2.852 0-5.13-.86-6.833-2.59-1.71-1.722-2.563-4.124-2.563-7.198 0-3 .87-5.382 2.617-7.145 1.743-1.763 3.946-2.645 6.61-2.645 3.9-.002 6.678 1.516 8.327 4.556z"/></g></svg>